<?xml version="1.0" encoding="iso-8859-1"?>
<!-- Generator: Adobe Illustrator 19.0.0, SVG Export Plug-In . SVG Version: 6.00 Build 0)  -->
<svg xmlns="http://www.w3.org/2000/svg" xmlns:xlink="http://www.w3.org/1999/xlink" version="1.1" id="Layer_1" x="0px" y="0px" viewBox="0 0 512 512" style="enable-background:new 0 0 512 512;" xml:space="preserve">
<path style="fill:#6AC6D8;" d="M90.026,503.975H63.132c-30.431,0-55.106-24.673-55.106-55.106V63.131  c0-30.433,24.674-55.106,55.106-55.106H448.87c30.431,0,55.104,24.673,55.104,55.106v385.739c0,30.433-24.673,55.106-55.104,55.106  H116.768"/>
<g>
	<path style="fill:#E5E4E4;" d="M163.74,395.871c-3.653,0-7.306-1.394-10.092-4.18l-74.677-74.676   c-2.677-2.677-4.179-6.307-4.179-10.092c0-3.786,1.502-7.416,4.179-10.092l74.677-74.676c5.573-5.574,14.609-5.574,20.181,0   c5.576,5.574,5.576,14.608,0,20.182l-64.585,64.585l64.585,64.585c5.576,5.574,5.576,14.608,0,20.182   C171.044,394.478,167.391,395.871,163.74,395.871z"/>
	<path style="fill:#E5E4E4;" d="M348.826,395.871c3.651,0,7.304-1.394,10.09-4.18l74.677-74.676   c2.677-2.677,4.181-6.307,4.181-10.092c0-3.786-1.504-7.416-4.181-10.092l-74.677-74.676c-5.571-5.574-14.607-5.574-20.181,0   c-5.574,5.574-5.574,14.608,0,20.182l64.585,64.585l-64.585,64.585c-5.574,5.574-5.574,14.608,0,20.182   C341.52,394.478,345.173,395.871,348.826,395.871z"/>
	<path style="fill:#E5E4E4;" d="M249.663,358.543l3.239-7.547l0,0l5.105-11.897l5.104-11.895l0,0l6.288-14.653l6.286-14.651l0,0   l5.104-11.897l5.106-11.895l0,0l21.676-50.522c1.557-3.622,1.494-7.53,0.14-10.922c-1.356-3.391-4.004-6.267-7.626-7.82   c-7.245-3.108-15.633,0.243-18.744,7.488l-22.777,53.084c-0.002,0.005-0.004,0.01-0.004,0.014l-15.392,35.869l-15.389,35.868   c-0.002,0.005-0.004,0.01-0.006,0.014l-22.777,53.084c-3.107,7.244,0.243,15.634,7.488,18.743c3.62,1.555,7.529,1.494,10.921,0.138   c3.392-1.355,6.267-4.004,7.82-7.626L249.663,358.543"/>
</g>
<polyline style="fill:#738191;" points="428.66,139.628 8.026,139.628 8.026,111.94 503.974,111.94 503.974,139.628   454.868,139.628 "/>
<path style="fill:#3E495A;" d="M448.87,8.025H63.132c-30.432,0-55.106,24.673-55.106,55.106v48.809h495.948V63.131  C503.974,32.697,479.302,8.025,448.87,8.025z"/>
<circle style="fill:#F57555;" cx="73.176" cy="62.187" r="16.05"/>
<circle style="fill:#F4B847;" cx="128.547" cy="62.187" r="16.049"/>
<circle style="fill:#62B07E;" cx="183.907" cy="62.187" r="16.049"/>
<g>
	<path style="fill:#231F20;" d="M448.87,0H63.132C28.321,0,0.001,28.32,0.001,63.131v48.809v27.689v309.241   C0.001,483.68,28.321,512,63.132,512h26.894c4.433,0,8.025-3.592,8.025-8.025c0-4.433-3.592-8.025-8.025-8.025H63.132   c-25.961,0-47.081-21.12-47.081-47.081V147.653H428.66c4.432,0,8.025-3.593,8.025-8.025c0-4.432-3.593-8.025-8.025-8.025H16.051   v-11.639h479.899v11.639h-41.082c-4.433,0-8.025,3.593-8.025,8.025c0,4.432,3.592,8.025,8.025,8.025h41.082v301.216   c0,25.961-21.119,47.081-47.079,47.081H116.768c-4.433,0-8.025,3.592-8.025,8.025c0,4.433,3.592,8.025,8.025,8.025H448.87   c34.808,0,63.129-28.32,63.129-63.131V139.628V111.94V63.131C511.999,28.32,483.679,0,448.87,0z M16.051,103.915V63.131   c0-25.961,21.12-47.081,47.081-47.081H448.87c25.96,0,47.079,21.12,47.079,47.081v40.784H16.051z"/>
	<path style="fill:#231F20;" d="M73.173,38.115c-13.274,0-24.074,10.799-24.074,24.073c0,13.275,10.8,24.074,24.074,24.074   s24.074-10.799,24.074-24.074C97.248,48.914,86.448,38.115,73.173,38.115z M73.173,70.213c-4.425,0-8.025-3.599-8.025-8.025   c0-4.424,3.599-8.024,8.025-8.024s8.025,3.599,8.025,8.024C81.198,66.613,77.598,70.213,73.173,70.213z"/>
	<path style="fill:#231F20;" d="M128.542,38.115c-13.274,0-24.074,10.799-24.074,24.073c0,13.275,10.8,24.074,24.074,24.074   c13.273,0,24.072-10.799,24.072-24.074C152.615,48.914,141.816,38.115,128.542,38.115z M128.542,70.213   c-4.425,0-8.025-3.599-8.025-8.025c0-4.424,3.599-8.024,8.025-8.024c4.424,0,8.023,3.599,8.023,8.024   C136.565,66.613,132.966,70.213,128.542,70.213z"/>
	<path style="fill:#231F20;" d="M183.912,38.115c-13.274,0-24.074,10.799-24.074,24.073c0,13.275,10.8,24.074,24.074,24.074   c13.273,0,24.072-10.799,24.072-24.074C207.984,48.914,197.185,38.115,183.912,38.115z M183.912,70.213   c-4.425,0-8.025-3.599-8.025-8.025c0-4.424,3.599-8.024,8.025-8.024c4.424,0,8.023,3.599,8.023,8.024   C191.934,66.613,188.335,70.213,183.912,70.213z"/>
	<path style="fill:#231F20;" d="M450.855,54.163h-141.23c-4.433,0-8.025,3.593-8.025,8.025s3.592,8.025,8.025,8.025h141.23   c4.433,0,8.025-3.593,8.025-8.025S455.288,54.163,450.855,54.163z"/>
	<path style="fill:#231F20;" d="M186.036,232.248c0-5.955-2.321-11.555-6.531-15.764c-4.211-4.212-9.81-6.532-15.765-6.532   c-5.955,0-11.555,2.32-15.766,6.531L73.3,291.157c-4.212,4.21-6.531,9.81-6.531,15.767c0,5.955,2.319,11.556,6.529,15.766   l74.676,74.675c4.211,4.211,9.811,6.531,15.767,6.531c5.955,0,11.555-2.32,15.763-6.53c4.214-4.212,6.533-9.812,6.533-15.766   c0-5.956-2.321-11.556-6.532-15.766l-58.912-58.911l58.911-58.91C183.717,243.802,186.036,238.203,186.036,232.248z    M168.155,236.664l-64.585,64.585c-1.504,1.505-2.35,3.547-2.35,5.675c0,2.128,0.845,4.169,2.35,5.675l64.586,64.586   c1.181,1.18,1.831,2.747,1.831,4.416c0,1.668-0.649,3.235-1.833,4.417c-1.179,1.18-2.746,1.83-4.414,1.83   c-1.669,0-3.237-0.649-4.417-1.831l-74.677-74.676c-1.18-1.179-1.83-2.748-1.83-4.417c0-1.67,0.648-3.238,1.83-4.417l74.677-74.677   c1.18-1.179,2.748-1.83,4.417-1.83c1.668,0,3.235,0.649,4.416,1.831c1.181,1.18,1.831,2.748,1.831,4.416   S169.337,235.483,168.155,236.664z"/>
	<path style="fill:#231F20;" d="M333.057,397.365c4.211,4.211,9.811,6.531,15.767,6.531c5.956,0,11.555-2.32,15.764-6.531   l74.677-74.676c4.213-4.214,6.531-9.812,6.531-15.766c0-5.955-2.321-11.556-6.531-15.766l-74.676-74.674   c-4.211-4.212-9.81-6.532-15.765-6.532c-5.955,0-11.555,2.32-15.766,6.531c-8.692,8.692-8.692,22.838,0,31.531l58.912,58.911   l-58.912,58.911C324.366,374.527,324.366,388.673,333.057,397.365z M344.409,377.184l64.585-64.585   c1.504-1.505,2.35-3.547,2.35-5.675c0-2.128-0.845-4.169-2.35-5.675l-64.585-64.585c-2.435-2.435-2.435-6.398,0-8.834   c1.18-1.179,2.748-1.83,4.417-1.83c1.668,0,3.235,0.649,4.415,1.83l74.679,74.677c1.18,1.18,1.83,2.748,1.83,4.416   s-0.649,3.237-1.832,4.417l-74.678,74.677c-1.179,1.18-2.746,1.83-4.414,1.83c-1.669,0-3.237-0.649-4.417-1.831   C341.972,383.582,341.972,379.618,344.409,377.184z"/>
	<path style="fill:#231F20;" d="M209.316,416.379c2.798,1.202,5.754,1.81,8.786,1.811c0.001,0,0.001,0,0.001,0   c2.844,0,5.63-0.537,8.277-1.594c5.533-2.209,9.873-6.442,12.219-11.915l76.342-177.927c2.352-5.471,2.43-11.532,0.218-17.073   c-2.212-5.53-6.442-9.867-11.913-12.214c-2.8-1.202-5.756-1.81-8.787-1.81c-8.928,0-16.972,5.302-20.495,13.508l-22.817,53.182   c-0.006,0.016-0.013,0.031-0.018,0.046l-30.698,71.543c-0.012,0.027-0.022,0.052-0.034,0.078l-22.777,53.084   c-2.348,5.474-2.425,11.533-0.216,17.063C199.614,409.692,203.846,414.032,209.316,416.379z M212.37,393.426l22.753-53.029   c0.011-0.022,0.019-0.046,0.03-0.068l30.781-71.738c0.02-0.048,0.041-0.096,0.061-0.144l22.719-52.952   c0.989-2.302,3.244-3.789,5.747-3.789c0.842,0,1.67,0.172,2.459,0.51c1.533,0.657,2.718,1.874,3.336,3.421   c0.62,1.551,0.599,3.247-0.062,4.783l-76.346,177.935c-0.656,1.532-1.871,2.717-3.422,3.335c-1.536,0.614-3.241,0.599-4.781-0.061   c-1.533-0.658-2.718-1.872-3.336-3.422C211.69,396.66,211.712,394.961,212.37,393.426z"/>
</g>
<g style="opacity:0.1;">
	<path style="fill:#231F20;" d="M33.228,448.869V63.131c0-30.433,24.673-55.106,55.105-55.106H63.132   c-30.432,0-55.106,24.673-55.106,55.106v385.739c0,30.433,24.674,55.106,55.106,55.106h25.201   C57.901,503.975,33.228,479.303,33.228,448.869z"/>
</g>
<g>
</g>
<g>
</g>
<g>
</g>
<g>
</g>
<g>
</g>
<g>
</g>
<g>
</g>
<g>
</g>
<g>
</g>
<g>
</g>
<g>
</g>
<g>
</g>
<g>
</g>
<g>
</g>
<g>
</g>
</svg>
